<?xml version="1.0" encoding="UTF-8" standalone="no"?>
<!DOCTYPE svg PUBLIC "-//W3C//DTD SVG 1.1//EN"
 "http://www.w3.org/Graphics/SVG/1.1/DTD/svg11.dtd">
<!-- Generated by graphviz version 2.41.20190326.2119 (20190326.2119)
 -->
<!-- Pages: 1 -->
<svg width="1405pt" height="797pt"
 viewBox="0.00 0.00 1405.00 797.38" xmlns="http://www.w3.org/2000/svg" xmlns:xlink="http://www.w3.org/1999/xlink">
<g id="graph0" class="graph" transform="scale(1 1) rotate(0) translate(4 793.38)">
<polygon fill="white" stroke="transparent" points="-4,4 -4,-793.38 1401,-793.38 1401,4 -4,4"/>
<!-- :copySource -->
<g id="node1" class="node">
<title>:copySource</title>
<text text-anchor="start" x="1240.5" y="-779.18" font-family="Times,serif" baseline-shift="super" font-size="14.00" fill="darkred">1</text>
<text text-anchor="start" x="1247.5" y="-779.18" font-family="Times,serif" font-size="14.00" fill="darkred">copySource</text>
</g>
<!-- :assemble -->
<g id="node2" class="node">
<title>:assemble</title>
<text text-anchor="middle" x="1369.5" y="-640.18" font-family="Times,serif" font-size="14.00">:assemble</text>
</g>
<!-- :assemble&#45;&gt;:copySource -->
<g id="edge1" class="edge">
<title>:assemble&#45;&gt;:copySource</title>
<path fill="none" stroke="gray" d="M1368.2,-651.62C1366.96,-672.79 1360.6,-732.32 1328,-764.88 1325.79,-767.09 1323.29,-769.01 1320.61,-770.68"/>
<polygon fill="gray" stroke="gray" points="1318.95,-767.59 1311.59,-775.21 1322.1,-773.85 1318.95,-767.59"/>
</g>
<!-- :copyTextXml -->
<g id="node3" class="node">
<title>:copyTextXml</title>
<text text-anchor="start" x="1234.5" y="-746.18" font-family="Times,serif" baseline-shift="super" font-size="14.00" fill="darkred">2</text>
<text text-anchor="start" x="1241.5" y="-746.18" font-family="Times,serif" font-size="14.00" fill="darkred">copyTextXml</text>
</g>
<!-- :assemble&#45;&gt;:copyTextXml -->
<g id="edge2" class="edge">
<title>:assemble&#45;&gt;:copyTextXml</title>
<path fill="none" stroke="gray" d="M1366.62,-651.85C1362.4,-668.06 1350.73,-705.19 1328,-726.88 1323.71,-730.98 1318.54,-734.37 1313.15,-737.17"/>
<polygon fill="gray" stroke="gray" points="1311.67,-734 1304.02,-741.33 1314.57,-740.38 1311.67,-734"/>
</g>
<!-- :copyWeb -->
<g id="node4" class="node">
<title>:copyWeb</title>
<text text-anchor="start" x="1139" y="-688.18" font-family="Times,serif" baseline-shift="super" font-size="14.00" fill="darkred">6</text>
<text text-anchor="start" x="1146" y="-688.18" font-family="Times,serif" font-size="14.00" fill="darkred">copyWeb</text>
</g>
<!-- :assemble&#45;&gt;:copyWeb -->
<g id="edge3" class="edge">
<title>:assemble&#45;&gt;:copyWeb</title>
<path fill="none" stroke="gray" d="M1364.86,-651.65C1358.98,-663.17 1346.17,-684.33 1328,-692.88 1290.09,-710.73 1241.21,-706.64 1207.82,-700.4"/>
<polygon fill="gray" stroke="gray" points="1208.48,-696.96 1197.98,-698.41 1207.09,-703.82 1208.48,-696.96"/>
</g>
<!-- :copyWitnessStats -->
<g id="node5" class="node">
<title>:copyWitnessStats</title>
<text text-anchor="start" x="1224" y="-674.18" font-family="Times,serif" baseline-shift="super" font-size="14.00" fill="darkred">7</text>
<text text-anchor="start" x="1231" y="-674.18" font-family="Times,serif" font-size="14.00" fill="darkred">copyWitnessStats</text>
</g>
<!-- :assemble&#45;&gt;:copyWitnessStats -->
<g id="edge4" class="edge">
<title>:assemble&#45;&gt;:copyWitnessStats</title>
<path fill="none" stroke="gray" d="M1350.03,-651.42C1343.15,-654.17 1335.25,-657.25 1328,-659.88 1322.27,-661.97 1316.14,-664.1 1310.19,-666.11"/>
<polygon fill="gray" stroke="gray" points="1308.83,-662.88 1300.45,-669.36 1311.04,-669.52 1308.83,-662.88"/>
</g>
<!-- :generateSVGs -->
<g id="node6" class="node">
<title>:generateSVGs</title>
<text text-anchor="start" x="1230" y="-641.18" font-family="Times,serif" baseline-shift="super" font-size="14.00" fill="darkred">12</text>
<text text-anchor="start" x="1243" y="-641.18" font-family="Times,serif" font-size="14.00" fill="darkred">generateSVGs</text>
</g>
<!-- :assemble&#45;&gt;:generateSVGs -->
<g id="edge5" class="edge">
<title>:assemble&#45;&gt;:generateSVGs</title>
<path fill="none" stroke="gray" d="M1341.54,-643.88C1338.58,-643.88 1335.49,-643.88 1332.34,-643.88"/>
<polygon fill="gray" stroke="gray" points="1332.13,-640.38 1322.13,-643.88 1332.13,-647.38 1332.13,-640.38"/>
</g>
<!-- :jar -->
<g id="node7" class="node">
<title>:jar</title>
<text text-anchor="start" x="1262" y="-608.18" font-family="Times,serif" baseline-shift="super" font-size="14.00" fill="darkred">13</text>
<text text-anchor="start" x="1275" y="-608.18" font-family="Times,serif" font-size="14.00" fill="darkred">jar</text>
</g>
<!-- :assemble&#45;&gt;:jar -->
<g id="edge6" class="edge">
<title>:assemble&#45;&gt;:jar</title>
<path fill="none" stroke="gray" d="M1351.3,-636.24C1344.15,-633.18 1335.73,-629.71 1328,-626.88 1318.85,-623.54 1308.64,-620.25 1299.76,-617.53"/>
<polygon fill="gray" stroke="gray" points="1300.69,-614.15 1290.11,-614.63 1298.68,-620.86 1300.69,-614.15"/>
</g>
<!-- :xar -->
<g id="node8" class="node">
<title>:xar</title>
<text text-anchor="start" x="1260.5" y="-575.18" font-family="Times,serif" baseline-shift="super" font-size="14.00" fill="darkred">29</text>
<text text-anchor="start" x="1273.5" y="-575.18" font-family="Times,serif" font-size="14.00" fill="darkred">xar</text>
</g>
<!-- :assemble&#45;&gt;:xar -->
<g id="edge7" class="edge">
<title>:assemble&#45;&gt;:xar</title>
<path fill="none" stroke="gray" d="M1364.31,-636.27C1357.9,-625.31 1344.63,-605.19 1328,-593.88 1320.17,-588.56 1310.47,-584.94 1301.65,-582.51"/>
<polygon fill="gray" stroke="gray" points="1302.39,-579.08 1291.85,-580.17 1300.76,-585.89 1302.39,-579.08"/>
</g>
<!-- :macrogen:runMacrogenReporting -->
<g id="node9" class="node">
<title>:macrogen:runMacrogenReporting</title>
<text text-anchor="start" x="725" y="-455.18" font-family="Times,serif" baseline-shift="super" font-size="14.00" fill="darkgreen">31</text>
<text text-anchor="start" x="738" y="-455.18" font-family="Times,serif" font-size="14.00" fill="darkgreen">runMacrogenReporting</text>
</g>
<!-- :assemble&#45;&gt;:macrogen:runMacrogenReporting -->
<g id="edge8" class="edge">
<title>:assemble&#45;&gt;:macrogen:runMacrogenReporting</title>
<path fill="none" stroke="gray" d="M1367.18,-636.2C1363.89,-619.5 1353.63,-579.89 1328,-560.88 1166.02,-440.76 1075.02,-540.22 880,-488.88 860.56,-483.77 839.33,-475.85 823.14,-469.3"/>
<polygon fill="gray" stroke="gray" points="824.35,-466.01 813.77,-465.43 821.68,-472.48 824.35,-466.01"/>
</g>
<!-- :src:main:xproc:assemble -->
<g id="node10" class="node">
<title>:src:main:xproc:assemble</title>
<text text-anchor="start" x="1244" y="-229.18" font-family="Times,serif" baseline-shift="super" font-size="14.00" fill="darkblue">38</text>
<text text-anchor="start" x="1257" y="-229.18" font-family="Times,serif" font-size="14.00" fill="darkblue">assemble</text>
</g>
<!-- :assemble&#45;&gt;:src:main:xproc:assemble -->
<g id="edge9" class="edge">
<title>:assemble&#45;&gt;:src:main:xproc:assemble</title>
<path fill="none" stroke="gray" d="M1366.83,-636.38C1356.12,-588.13 1296.86,-321.3 1280.94,-249.61"/>
<polygon fill="gray" stroke="gray" points="1284.28,-248.53 1278.7,-239.53 1277.45,-250.05 1284.28,-248.53"/>
</g>
<!-- :prepareWeb -->
<g id="node11" class="node">
<title>:prepareWeb</title>
<text text-anchor="start" x="1019.5" y="-702.18" font-family="Times,serif" baseline-shift="super" font-size="14.00" fill="darkred">5</text>
<text text-anchor="start" x="1026.5" y="-702.18" font-family="Times,serif" font-size="14.00" fill="darkred">prepareWeb</text>
</g>
<!-- :copyWeb&#45;&gt;:prepareWeb -->
<g id="edge10" class="edge">
<title>:copyWeb&#45;&gt;:prepareWeb</title>
<path fill="none" stroke="gray" d="M1138.89,-694.53C1128.25,-695.88 1115.89,-697.45 1104.06,-698.96"/>
<polygon fill="gray" stroke="gray" points="1103.34,-695.52 1093.87,-700.26 1104.23,-702.46 1103.34,-695.52"/>
</g>
<!-- :generateSVGs&#45;&gt;:copyWeb -->
<g id="edge13" class="edge">
<title>:generateSVGs&#45;&gt;:copyWeb</title>
<path fill="none" stroke="gray" d="M1247.08,-651.47C1239.47,-653.85 1231.32,-656.7 1224,-659.88 1212.35,-664.95 1200,-671.84 1190,-677.84"/>
<polygon fill="gray" stroke="gray" points="1187.93,-675.01 1181.24,-683.23 1191.59,-680.97 1187.93,-675.01"/>
</g>
<!-- :classes -->
<g id="node14" class="node">
<title>:classes</title>
<text text-anchor="start" x="1143" y="-641.18" font-family="Times,serif" baseline-shift="super" font-size="14.00" fill="darkred">10</text>
<text text-anchor="start" x="1156" y="-641.18" font-family="Times,serif" font-size="14.00" fill="darkred">classes</text>
</g>
<!-- :generateSVGs&#45;&gt;:classes -->
<g id="edge14" class="edge">
<title>:generateSVGs&#45;&gt;:classes</title>
<path fill="none" stroke="gray" d="M1229.95,-643.88C1221.29,-643.88 1212.34,-643.88 1204.07,-643.88"/>
<polygon fill="gray" stroke="gray" points="1204.04,-640.38 1194.04,-643.88 1204.04,-647.38 1204.04,-640.38"/>
</g>
<!-- :npmInstall -->
<g id="node15" class="node">
<title>:npmInstall</title>
<text text-anchor="start" x="1021.5" y="-603.18" font-family="Times,serif" baseline-shift="super" font-size="14.00" fill="darkred">11</text>
<text text-anchor="start" x="1032.5" y="-603.18" font-family="Times,serif" font-size="14.00" fill="darkred">npmInstall</text>
</g>
<!-- :generateSVGs&#45;&gt;:npmInstall -->
<g id="edge15" class="edge">
<title>:generateSVGs&#45;&gt;:npmInstall</title>
<path fill="none" stroke="gray" d="M1248.91,-636.3C1237.11,-633.07 1222.93,-629.45 1210,-626.88 1173.89,-619.7 1132.48,-614.17 1101.94,-610.59"/>
<polygon fill="gray" stroke="gray" points="1101.95,-607.07 1091.61,-609.4 1101.15,-614.02 1101.95,-607.07"/>
</g>
<!-- :jar&#45;&gt;:classes -->
<g id="edge19" class="edge">
<title>:jar&#45;&gt;:classes</title>
<path fill="none" stroke="gray" d="M1261.64,-615.06C1247.03,-619.63 1223.06,-627.13 1203.22,-633.33"/>
<polygon fill="gray" stroke="gray" points="1202.09,-630.02 1193.59,-636.35 1204.18,-636.7 1202.09,-630.02"/>
</g>
<!-- :xar&#45;&gt;:copyWeb -->
<g id="edge20" class="edge">
<title>:xar&#45;&gt;:copyWeb</title>
<path fill="none" stroke="gray" d="M1260.36,-578.6C1248.84,-579.96 1233.24,-583.72 1224,-593.88 1203.83,-616.07 1226.01,-634.53 1210,-659.88 1205.64,-666.78 1199.18,-672.73 1192.69,-677.52"/>
<polygon fill="gray" stroke="gray" points="1190.38,-674.84 1184.01,-683.31 1194.27,-680.67 1190.38,-674.84"/>
</g>
<!-- :src:main:xproc:generateSearch -->
<g id="node18" class="node">
<title>:src:main:xproc:generateSearch</title>
<text text-anchor="start" x="473.5" y="-185.18" font-family="Times,serif" baseline-shift="super" font-size="14.00" fill="darkblue">21</text>
<text text-anchor="start" x="486.5" y="-185.18" font-family="Times,serif" font-size="14.00" fill="darkblue">generateSearch</text>
</g>
<!-- :xar&#45;&gt;:src:main:xproc:generateSearch -->
<g id="edge21" class="edge">
<title>:xar&#45;&gt;:src:main:xproc:generateSearch</title>
<path fill="none" stroke="gray" d="M1260.38,-573.2C1173.04,-545.06 720.36,-396.58 607,-306.88 570.67,-278.14 543.14,-229.76 530.36,-204.45"/>
<polygon fill="gray" stroke="gray" points="533.48,-202.86 525.94,-195.42 527.19,-205.94 533.48,-202.86"/>
</g>
<!-- :src:main:xproc:metadataHtml -->
<g id="node19" class="node">
<title>:src:main:xproc:metadataHtml</title>
<text text-anchor="start" x="1010.5" y="-415.18" font-family="Times,serif" baseline-shift="super" font-size="14.00" fill="darkblue">22</text>
<text text-anchor="start" x="1023.5" y="-415.18" font-family="Times,serif" font-size="14.00" fill="darkblue">metadataHtml</text>
</g>
<!-- :xar&#45;&gt;:src:main:xproc:metadataHtml -->
<g id="edge22" class="edge">
<title>:xar&#45;&gt;:src:main:xproc:metadataHtml</title>
<path fill="none" stroke="gray" d="M1267.87,-570.29C1256.38,-558.31 1232.75,-534.64 1210,-517.88 1175.69,-492.61 1162.57,-493.36 1127,-469.88 1108.84,-457.9 1089.06,-442.89 1075.26,-432.09"/>
<polygon fill="gray" stroke="gray" points="1077.15,-429.12 1067.13,-425.66 1072.81,-434.61 1077.15,-429.12"/>
</g>
<!-- :src:main:xproc:testimony -->
<g id="node20" class="node">
<title>:src:main:xproc:testimony</title>
<text text-anchor="start" x="1022.5" y="-377.18" font-family="Times,serif" baseline-shift="super" font-size="14.00" fill="darkblue">27</text>
<text text-anchor="start" x="1035.5" y="-377.18" font-family="Times,serif" font-size="14.00" fill="darkblue">testimony</text>
</g>
<!-- :xar&#45;&gt;:src:main:xproc:testimony -->
<g id="edge23" class="edge">
<title>:xar&#45;&gt;:src:main:xproc:testimony</title>
<path fill="none" stroke="gray" d="M1271.8,-570.38C1263.6,-551.77 1240.34,-502.64 1210,-469.88 1174.05,-431.07 1159.68,-425.78 1113,-400.88 1106.19,-397.25 1098.61,-393.94 1091.29,-391.09"/>
<polygon fill="gray" stroke="gray" points="1092.18,-387.68 1081.58,-387.48 1089.74,-394.24 1092.18,-387.68"/>
</g>
<!-- :src:main:xproc:bibliography -->
<g id="node21" class="node">
<title>:src:main:xproc:bibliography</title>
<text text-anchor="start" x="1127" y="-341.18" font-family="Times,serif" baseline-shift="super" font-size="14.00" fill="darkblue">28</text>
<text text-anchor="start" x="1140" y="-341.18" font-family="Times,serif" font-size="14.00" fill="darkblue">bibliography</text>
</g>
<!-- :xar&#45;&gt;:src:main:xproc:bibliography -->
<g id="edge24" class="edge">
<title>:xar&#45;&gt;:src:main:xproc:bibliography</title>
<path fill="none" stroke="gray" d="M1271.61,-570.36C1256.89,-537.7 1198.28,-407.73 1177.15,-360.85"/>
<polygon fill="gray" stroke="gray" points="1180.23,-359.17 1172.93,-351.49 1173.85,-362.05 1180.23,-359.17"/>
</g>
<!-- :macrogen:runMacrogenAnalysis -->
<g id="node22" class="node">
<title>:macrogen:runMacrogenAnalysis</title>
<text text-anchor="start" x="302" y="-455.18" font-family="Times,serif" baseline-shift="super" font-size="14.00" fill="darkgreen">17</text>
<text text-anchor="start" x="315" y="-455.18" font-family="Times,serif" font-size="14.00" fill="darkgreen">runMacrogenAnalysis</text>
</g>
<!-- :macrogen:runMacrogenReporting&#45;&gt;:macrogen:runMacrogenAnalysis -->
<g id="edge41" class="edge">
<title>:macrogen:runMacrogenReporting&#45;&gt;:macrogen:runMacrogenAnalysis</title>
<path fill="none" stroke="gray" d="M724.88,-457.88C648.34,-457.88 525.75,-457.88 446.56,-457.88"/>
<polygon fill="gray" stroke="gray" points="446.16,-454.38 436.16,-457.88 446.16,-461.38 446.16,-454.38"/>
</g>
<!-- :macrogen:installMacrogen -->
<g id="node24" class="node">
<title>:macrogen:installMacrogen</title>
<text text-anchor="start" x="161" y="-472.18" font-family="Times,serif" baseline-shift="super" font-size="14.00" fill="darkgreen">15</text>
<text text-anchor="start" x="174" y="-472.18" font-family="Times,serif" font-size="14.00" fill="darkgreen">installMacrogen</text>
</g>
<!-- :macrogen:runMacrogenReporting&#45;&gt;:macrogen:installMacrogen -->
<g id="edge42" class="edge">
<title>:macrogen:runMacrogenReporting&#45;&gt;:macrogen:installMacrogen</title>
<path fill="none" stroke="gray" d="M724.8,-461.82C652.58,-465.71 536.43,-471.42 436,-473.88 380.88,-475.24 318.08,-475.39 273.2,-475.27"/>
<polygon fill="gray" stroke="gray" points="273.06,-471.77 263.05,-475.23 273.04,-478.77 273.06,-471.77"/>
</g>
<!-- :macrogen:prepareMacrogenOptions -->
<g id="node25" class="node">
<title>:macrogen:prepareMacrogenOptions</title>
<text text-anchor="start" x="136" y="-437.18" font-family="Times,serif" baseline-shift="super" font-size="14.00" fill="darkgreen">16</text>
<text text-anchor="start" x="149" y="-437.18" font-family="Times,serif" font-size="14.00" fill="darkgreen">prepareMacrogenOptions</text>
</g>
<!-- :macrogen:runMacrogenReporting&#45;&gt;:macrogen:prepareMacrogenOptions -->
<g id="edge43" class="edge">
<title>:macrogen:runMacrogenReporting&#45;&gt;:macrogen:prepareMacrogenOptions</title>
<path fill="none" stroke="gray" d="M724.8,-453.69C652.59,-449.56 536.44,-443.49 436,-440.88 390.5,-439.7 339.77,-439.4 298.2,-439.41"/>
<polygon fill="gray" stroke="gray" points="298.11,-435.91 288.11,-439.42 298.11,-442.91 298.11,-435.91"/>
</g>
<!-- :src:main:xproc:bargraphData -->
<g id="node33" class="node">
<title>:src:main:xproc:bargraphData</title>
<text text-anchor="start" x="615.5" y="-257.18" font-family="Times,serif" baseline-shift="super" font-size="14.00" fill="darkblue">30</text>
<text text-anchor="start" x="628.5" y="-257.18" font-family="Times,serif" font-size="14.00" fill="darkblue">bargraphData</text>
</g>
<!-- :macrogen:runMacrogenReporting&#45;&gt;:src:main:xproc:bargraphData -->
<g id="edge44" class="edge">
<title>:macrogen:runMacrogenReporting&#45;&gt;:src:main:xproc:bargraphData</title>
<path fill="none" stroke="gray" d="M789.39,-450.36C769.67,-421.33 698.22,-316.14 670.81,-275.79"/>
<polygon fill="gray" stroke="gray" points="673.63,-273.72 665.11,-267.41 667.84,-277.65 673.63,-273.72"/>
</g>
<!-- :src:main:xproc:assemble&#45;&gt;:src:main:xproc:metadataHtml -->
<g id="edge46" class="edge">
<title>:src:main:xproc:assemble&#45;&gt;:src:main:xproc:metadataHtml</title>
<path fill="none" stroke="gray" d="M1274.26,-239.47C1271.38,-264.81 1258.5,-347.09 1210,-386.88 1182.96,-409.07 1144.25,-416.75 1112.61,-418.91"/>
<polygon fill="gray" stroke="gray" points="1112.41,-415.42 1102.6,-419.43 1112.77,-422.41 1112.41,-415.42"/>
</g>
<!-- :src:main:xproc:assemble&#45;&gt;:src:main:xproc:testimony -->
<g id="edge47" class="edge">
<title>:src:main:xproc:assemble&#45;&gt;:src:main:xproc:testimony</title>
<path fill="none" stroke="gray" d="M1273.66,-239.54C1269.25,-262.25 1252.93,-329.51 1210,-359.88 1178.43,-382.22 1133.77,-385.68 1100.94,-384.48"/>
<polygon fill="gray" stroke="gray" points="1100.9,-380.97 1090.73,-383.94 1100.53,-387.96 1100.9,-380.97"/>
</g>
<!-- :src:main:xproc:assemble&#45;&gt;:src:main:xproc:bibliography -->
<g id="edge48" class="edge">
<title>:src:main:xproc:assemble&#45;&gt;:src:main:xproc:bibliography</title>
<path fill="none" stroke="gray" d="M1271.05,-239.51C1262.1,-256.22 1238.8,-296.55 1210,-321.88 1205.97,-325.43 1201.28,-328.62 1196.54,-331.41"/>
<polygon fill="gray" stroke="gray" points="1194.69,-328.43 1187.54,-336.25 1198.01,-334.59 1194.69,-328.43"/>
</g>
<!-- :src:main:xproc:readingTextExtras -->
<g id="node29" class="node">
<title>:src:main:xproc:readingTextExtras</title>
<text text-anchor="start" x="1000" y="-305.18" font-family="Times,serif" baseline-shift="super" font-size="14.00" fill="darkblue">26</text>
<text text-anchor="start" x="1013" y="-305.18" font-family="Times,serif" font-size="14.00" fill="darkblue">readingTextExtras</text>
</g>
<!-- :src:main:xproc:assemble&#45;&gt;:src:main:xproc:readingTextExtras -->
<g id="edge49" class="edge">
<title>:src:main:xproc:assemble&#45;&gt;:src:main:xproc:readingTextExtras</title>
<path fill="none" stroke="gray" d="M1267.88,-239.75C1256.77,-251.46 1234.06,-273.27 1210,-283.88 1182.92,-295.83 1150.82,-301.93 1123.08,-305.02"/>
<polygon fill="gray" stroke="gray" points="1122.67,-301.54 1113.07,-306.02 1123.37,-308.5 1122.67,-301.54"/>
</g>
<!-- :src:main:xproc:generatePrint -->
<g id="node30" class="node">
<title>:src:main:xproc:generatePrint</title>
<text text-anchor="start" x="890" y="-267.18" font-family="Times,serif" baseline-shift="super" font-size="14.00" fill="darkblue">25</text>
<text text-anchor="start" x="903" y="-267.18" font-family="Times,serif" font-size="14.00" fill="darkblue">generatePrint</text>
</g>
<!-- :src:main:xproc:assemble&#45;&gt;:src:main:xproc:generatePrint -->
<g id="edge50" class="edge">
<title>:src:main:xproc:assemble&#45;&gt;:src:main:xproc:generatePrint</title>
<path fill="none" stroke="gray" d="M1243.74,-239.45C1233.09,-241.8 1221.07,-244.22 1210,-245.88 1132.7,-257.52 1042.31,-264.06 986.6,-267.28"/>
<polygon fill="gray" stroke="gray" points="986.06,-263.8 976.28,-267.86 986.46,-270.79 986.06,-263.8"/>
</g>
<!-- :src:main:xproc:assemble&#45;&gt;:src:main:xproc:bargraphData -->
<g id="edge51" class="edge">
<title>:src:main:xproc:assemble&#45;&gt;:src:main:xproc:bargraphData</title>
<path fill="none" stroke="gray" d="M1243.95,-232.32C1160.12,-233.65 922.28,-238.51 725,-252.88 721.04,-253.17 716.94,-253.51 712.83,-253.89"/>
<polygon fill="gray" stroke="gray" points="712.24,-250.43 702.62,-254.87 712.91,-257.39 712.24,-250.43"/>
</g>
<!-- :src:main:xproc:generateApp -->
<g id="node34" class="node">
<title>:src:main:xproc:generateApp</title>
<text text-anchor="start" x="754" y="-195.18" font-family="Times,serif" baseline-shift="super" font-size="14.00" fill="darkblue">32</text>
<text text-anchor="start" x="767" y="-195.18" font-family="Times,serif" font-size="14.00" fill="darkblue">generateApp</text>
</g>
<!-- :src:main:xproc:assemble&#45;&gt;:src:main:xproc:generateApp -->
<g id="edge52" class="edge">
<title>:src:main:xproc:assemble&#45;&gt;:src:main:xproc:generateApp</title>
<path fill="none" stroke="gray" d="M1245.08,-224.37C1234.12,-221.9 1221.56,-219.4 1210,-217.88 1080.08,-200.87 925.49,-197.94 847.26,-197.67"/>
<polygon fill="gray" stroke="gray" points="847.2,-194.17 837.19,-197.65 847.19,-201.17 847.2,-194.17"/>
</g>
<!-- :src:main:xproc:independentTransforms -->
<g id="node35" class="node">
<title>:src:main:xproc:independentTransforms</title>
<text text-anchor="start" x="450" y="-82.18" font-family="Times,serif" baseline-shift="super" font-size="14.00" fill="darkblue">33</text>
<text text-anchor="start" x="463" y="-82.18" font-family="Times,serif" font-size="14.00" fill="darkblue">independentTransforms</text>
</g>
<!-- :src:main:xproc:assemble&#45;&gt;:src:main:xproc:independentTransforms -->
<g id="edge53" class="edge">
<title>:src:main:xproc:assemble&#45;&gt;:src:main:xproc:independentTransforms</title>
<path fill="none" stroke="gray" d="M1258.46,-224.3C1245.5,-218.6 1226.89,-210.92 1210,-205.88 993.18,-141.16 934.64,-139.3 711,-104.88 675.92,-99.48 636.95,-95.09 603.58,-91.8"/>
<polygon fill="gray" stroke="gray" points="603.71,-88.3 593.42,-90.82 603.03,-95.26 603.71,-88.3"/>
</g>
<!-- :src:main:xproc:indexesRedirects -->
<g id="node36" class="node">
<title>:src:main:xproc:indexesRedirects</title>
<text text-anchor="start" x="880" y="-79.18" font-family="Times,serif" baseline-shift="super" font-size="14.00" fill="darkblue">34</text>
<text text-anchor="start" x="893" y="-79.18" font-family="Times,serif" font-size="14.00" fill="darkblue">indexesRedirects</text>
</g>
<!-- :src:main:xproc:assemble&#45;&gt;:src:main:xproc:indexesRedirects -->
<g id="edge54" class="edge">
<title>:src:main:xproc:assemble&#45;&gt;:src:main:xproc:indexesRedirects</title>
<path fill="none" stroke="gray" d="M1271.78,-224.14C1264,-206.48 1242.41,-163.1 1210,-141.88 1145.23,-99.48 1055.39,-86.56 996.03,-82.88"/>
<polygon fill="gray" stroke="gray" points="996.22,-79.39 986.04,-82.33 995.83,-86.38 996.22,-79.39"/>
</g>
<!-- :src:main:xproc:metadataJs -->
<g id="node37" class="node">
<title>:src:main:xproc:metadataJs</title>
<text text-anchor="start" x="622" y="-119.18" font-family="Times,serif" baseline-shift="super" font-size="14.00" fill="darkblue">35</text>
<text text-anchor="start" x="635" y="-119.18" font-family="Times,serif" font-size="14.00" fill="darkblue">metadataJs</text>
</g>
<!-- :src:main:xproc:assemble&#45;&gt;:src:main:xproc:metadataJs -->
<g id="edge55" class="edge">
<title>:src:main:xproc:assemble&#45;&gt;:src:main:xproc:metadataJs</title>
<path fill="none" stroke="gray" d="M1273.36,-224.13C1268.22,-201.73 1250.29,-136.31 1210,-101.88 1130.6,-34.04 1089.21,-46.85 986,-30.88 870.09,-12.95 830.06,-17.75 725,-69.88 705.86,-79.38 687.14,-95.26 674.75,-106.97"/>
<polygon fill="gray" stroke="gray" points="671.96,-104.8 667.25,-114.29 676.85,-109.81 671.96,-104.8"/>
</g>
<!-- :src:main:xproc:pagesJson -->
<g id="node38" class="node">
<title>:src:main:xproc:pagesJson</title>
<text text-anchor="start" x="625" y="-152.18" font-family="Times,serif" baseline-shift="super" font-size="14.00" fill="darkblue">36</text>
<text text-anchor="start" x="638" y="-152.18" font-family="Times,serif" font-size="14.00" fill="darkblue">pagesJson</text>
</g>
<!-- :src:main:xproc:assemble&#45;&gt;:src:main:xproc:pagesJson -->
<g id="edge56" class="edge">
<title>:src:main:xproc:assemble&#45;&gt;:src:main:xproc:pagesJson</title>
<path fill="none" stroke="gray" d="M1272.27,-224.2C1265.3,-205.85 1244.84,-159.7 1210,-141.88 1122.07,-96.92 817.31,-133.08 703.4,-148.64"/>
<polygon fill="gray" stroke="gray" points="702.73,-145.2 693.3,-150.04 703.69,-152.14 702.73,-145.2"/>
</g>
<!-- :src:main:xproc:paraTable -->
<g id="node39" class="node">
<title>:src:main:xproc:paraTable</title>
<text text-anchor="start" x="899" y="-45.18" font-family="Times,serif" baseline-shift="super" font-size="14.00" fill="darkblue">37</text>
<text text-anchor="start" x="912" y="-45.18" font-family="Times,serif" font-size="14.00" fill="darkblue">paraTable</text>
</g>
<!-- :src:main:xproc:assemble&#45;&gt;:src:main:xproc:paraTable -->
<g id="edge57" class="edge">
<title>:src:main:xproc:assemble&#45;&gt;:src:main:xproc:paraTable</title>
<path fill="none" stroke="gray" d="M1275.41,-224.2C1276.58,-193.17 1276.32,-76.36 1210,-27.88 1133.66,27.91 1011.57,-13.91 959.19,-36.22"/>
<polygon fill="gray" stroke="gray" points="957.72,-33.05 949.97,-40.26 960.53,-39.46 957.72,-33.05"/>
</g>
<!-- :npmSetup -->
<g id="node12" class="node">
<title>:npmSetup</title>
<text text-anchor="start" x="901.5" y="-652.18" font-family="Times,serif" baseline-shift="super" font-size="14.00" fill="darkred">4</text>
<text text-anchor="start" x="908.5" y="-652.18" font-family="Times,serif" font-size="14.00" fill="darkred">npmSetup</text>
</g>
<!-- :prepareWeb&#45;&gt;:npmSetup -->
<g id="edge11" class="edge">
<title>:prepareWeb&#45;&gt;:npmSetup</title>
<path fill="none" stroke="gray" d="M1027.52,-697.3C1018.61,-694.63 1008.8,-691.4 1000,-687.88 985.02,-681.89 968.81,-673.81 956.21,-667.15"/>
<polygon fill="gray" stroke="gray" points="957.81,-664.04 947.35,-662.38 954.5,-670.2 957.81,-664.04"/>
</g>
<!-- :nodeSetup -->
<g id="node13" class="node">
<title>:nodeSetup</title>
<text text-anchor="start" x="763" y="-652.18" font-family="Times,serif" baseline-shift="super" font-size="14.00" fill="darkred">3</text>
<text text-anchor="start" x="770" y="-652.18" font-family="Times,serif" font-size="14.00" fill="darkred">nodeSetup</text>
</g>
<!-- :npmSetup&#45;&gt;:nodeSetup -->
<g id="edge12" class="edge">
<title>:npmSetup&#45;&gt;:nodeSetup</title>
<path fill="none" stroke="gray" d="M901.25,-654.88C882.64,-654.88 858.64,-654.88 838.31,-654.88"/>
<polygon fill="gray" stroke="gray" points="838.07,-651.38 828.07,-654.88 838.07,-658.38 838.07,-651.38"/>
</g>
<!-- :compileJava -->
<g id="node16" class="node">
<title>:compileJava</title>
<text text-anchor="start" x="1018.5" y="-669.18" font-family="Times,serif" baseline-shift="super" font-size="14.00" fill="darkred">8</text>
<text text-anchor="start" x="1025.5" y="-669.18" font-family="Times,serif" font-size="14.00" fill="darkred">compileJava</text>
</g>
<!-- :classes&#45;&gt;:compileJava -->
<g id="edge16" class="edge">
<title>:classes&#45;&gt;:compileJava</title>
<path fill="none" stroke="gray" d="M1142.81,-650.17C1129.3,-653.61 1112.25,-657.95 1096.94,-661.84"/>
<polygon fill="gray" stroke="gray" points="1096.02,-658.47 1087.19,-664.33 1097.74,-665.25 1096.02,-658.47"/>
</g>
<!-- :processResources -->
<g id="node17" class="node">
<title>:processResources</title>
<text text-anchor="start" x="1004.5" y="-636.18" font-family="Times,serif" baseline-shift="super" font-size="14.00" fill="darkred">9</text>
<text text-anchor="start" x="1011.5" y="-636.18" font-family="Times,serif" font-size="14.00" fill="darkred">processResources</text>
</g>
<!-- :classes&#45;&gt;:processResources -->
<g id="edge17" class="edge">
<title>:classes&#45;&gt;:processResources</title>
<path fill="none" stroke="gray" d="M1142.81,-642.76C1135.53,-642.43 1127.21,-642.05 1118.7,-641.67"/>
<polygon fill="gray" stroke="gray" points="1118.8,-638.17 1108.66,-641.21 1118.49,-645.16 1118.8,-638.17"/>
</g>
<!-- :npmInstall&#45;&gt;:npmSetup -->
<g id="edge18" class="edge">
<title>:npmInstall&#45;&gt;:npmSetup</title>
<path fill="none" stroke="gray" d="M1025.5,-613.45C1017.14,-615.85 1008.13,-618.71 1000,-621.88 984.97,-627.75 968.76,-635.83 956.17,-642.52"/>
<polygon fill="gray" stroke="gray" points="954.45,-639.47 947.32,-647.31 957.78,-645.63 954.45,-639.47"/>
</g>
<!-- :src:main:xproc:generateSearch&#45;&gt;:macrogen:runMacrogenAnalysis -->
<g id="edge25" class="edge">
<title>:src:main:xproc:generateSearch&#45;&gt;:macrogen:runMacrogenAnalysis</title>
<path fill="none" stroke="gray" d="M516.32,-195.39C496.07,-231.72 408,-389.71 379.17,-441.43"/>
<polygon fill="gray" stroke="gray" points="376.05,-439.85 374.23,-450.29 382.16,-443.26 376.05,-439.85"/>
</g>
<!-- :src:main:xproc:readingText -->
<g id="node23" class="node">
<title>:src:main:xproc:readingText</title>
<text text-anchor="start" x="329.5" y="-170.18" font-family="Times,serif" baseline-shift="super" font-size="14.00" fill="darkblue">20</text>
<text text-anchor="start" x="342.5" y="-170.18" font-family="Times,serif" font-size="14.00" fill="darkblue">readingText</text>
</g>
<!-- :src:main:xproc:generateSearch&#45;&gt;:src:main:xproc:readingText -->
<g id="edge26" class="edge">
<title>:src:main:xproc:generateSearch&#45;&gt;:src:main:xproc:readingText</title>
<path fill="none" stroke="gray" d="M473.29,-183.18C456,-181.45 436.4,-179.5 418.95,-177.76"/>
<polygon fill="gray" stroke="gray" points="419.26,-174.28 408.97,-176.77 418.57,-181.24 419.26,-174.28"/>
</g>
<!-- :src:main:xproc:metadataHtml&#45;&gt;:src:main:xproc:generateSearch -->
<g id="edge32" class="edge">
<title>:src:main:xproc:metadataHtml&#45;&gt;:src:main:xproc:generateSearch</title>
<path fill="none" stroke="gray" d="M1035.3,-410.33C1024.71,-406.25 1011.56,-401.01 1000,-395.88 939.32,-368.96 928.77,-351.5 866,-329.88 754.82,-291.6 709.87,-332.84 607,-275.88 574.85,-258.08 547.46,-223.98 533.15,-203.86"/>
<polygon fill="gray" stroke="gray" points="535.92,-201.72 527.37,-195.47 530.16,-205.69 535.92,-201.72"/>
</g>
<!-- :src:main:xproc:collectMetadata -->
<g id="node27" class="node">
<title>:src:main:xproc:collectMetadata</title>
<text text-anchor="start" x="161.5" y="-119.18" font-family="Times,serif" baseline-shift="super" font-size="14.00" fill="darkblue">19</text>
<text text-anchor="start" x="174.5" y="-119.18" font-family="Times,serif" font-size="14.00" fill="darkblue">collectMetadata</text>
</g>
<!-- :src:main:xproc:testimony&#45;&gt;:src:main:xproc:collectMetadata -->
<g id="edge33" class="edge">
<title>:src:main:xproc:testimony&#45;&gt;:src:main:xproc:collectMetadata</title>
<path fill="none" stroke="gray" d="M1022.43,-380.16C954.51,-380.71 794.41,-381.88 660,-381.88 660,-381.88 660,-381.88 520.5,-381.88 368.81,-381.88 253.36,-195.11 221.68,-138.17"/>
<polygon fill="gray" stroke="gray" points="224.76,-136.49 216.9,-129.38 218.61,-139.84 224.76,-136.49"/>
</g>
<!-- :src:main:xproc:bibliography&#45;&gt;:src:main:xproc:metadataHtml -->
<g id="edge34" class="edge">
<title>:src:main:xproc:bibliography&#45;&gt;:src:main:xproc:metadataHtml</title>
<path fill="none" stroke="gray" d="M1161.18,-351.55C1151.71,-362.64 1132.82,-383.19 1113,-395.88 1106.52,-400.03 1099.13,-403.63 1091.9,-406.64"/>
<polygon fill="gray" stroke="gray" points="1090.31,-403.5 1082.25,-410.38 1092.84,-410.03 1090.31,-403.5"/>
</g>
<!-- :src:main:xproc:bibliography&#45;&gt;:src:main:xproc:testimony -->
<g id="edge35" class="edge">
<title>:src:main:xproc:bibliography&#45;&gt;:src:main:xproc:testimony</title>
<path fill="none" stroke="gray" d="M1144.44,-351.43C1128.75,-356.57 1107.74,-363.44 1090.31,-369.14"/>
<polygon fill="gray" stroke="gray" points="1088.94,-365.91 1080.53,-372.35 1091.12,-372.56 1088.94,-365.91"/>
</g>
<!-- :src:main:xproc:bibliography&#45;&gt;:src:main:xproc:readingTextExtras -->
<g id="edge36" class="edge">
<title>:src:main:xproc:bibliography&#45;&gt;:src:main:xproc:readingTextExtras</title>
<path fill="none" stroke="gray" d="M1144.44,-336.34C1128.75,-331.2 1107.74,-324.33 1090.31,-318.62"/>
<polygon fill="gray" stroke="gray" points="1091.12,-315.2 1080.53,-315.42 1088.94,-321.86 1091.12,-315.2"/>
</g>
<!-- :macrogen:runMacrogenAnalysis&#45;&gt;:macrogen:installMacrogen -->
<g id="edge27" class="edge">
<title>:macrogen:runMacrogenAnalysis&#45;&gt;:macrogen:installMacrogen</title>
<path fill="none" stroke="gray" d="M301.82,-465.14C292.27,-466.19 282.49,-467.26 273.07,-468.3"/>
<polygon fill="gray" stroke="gray" points="272.58,-464.83 263.02,-469.4 273.34,-471.79 272.58,-464.83"/>
</g>
<!-- :macrogen:runMacrogenAnalysis&#45;&gt;:macrogen:prepareMacrogenOptions -->
<g id="edge28" class="edge">
<title>:macrogen:runMacrogenAnalysis&#45;&gt;:macrogen:prepareMacrogenOptions</title>
<path fill="none" stroke="gray" d="M303.16,-450.35C298.24,-449.78 293.24,-449.2 288.26,-448.62"/>
<polygon fill="gray" stroke="gray" points="288.41,-445.12 278.07,-447.44 287.6,-452.07 288.41,-445.12"/>
</g>
<!-- :src:main:xproc:readingText&#45;&gt;:src:main:xproc:collectMetadata -->
<g id="edge30" class="edge">
<title>:src:main:xproc:readingText&#45;&gt;:src:main:xproc:collectMetadata</title>
<path fill="none" stroke="gray" d="M345.13,-165.36C318.8,-156.7 275.36,-142.4 245.52,-132.58"/>
<polygon fill="gray" stroke="gray" points="246.56,-129.24 235.96,-129.44 244.37,-135.89 246.56,-129.24"/>
</g>
<!-- :macrogen:installMicromamba -->
<g id="node26" class="node">
<title>:macrogen:installMicromamba</title>
<text text-anchor="start" x="0" y="-472.18" font-family="Times,serif" baseline-shift="super" font-size="14.00" fill="darkgreen">14</text>
<text text-anchor="start" x="13" y="-472.18" font-family="Times,serif" font-size="14.00" fill="darkgreen">installMicromamba</text>
</g>
<!-- :macrogen:installMacrogen&#45;&gt;:macrogen:installMicromamba -->
<g id="edge29" class="edge">
<title>:macrogen:installMacrogen&#45;&gt;:macrogen:installMicromamba</title>
<path fill="none" stroke="gray" d="M160.97,-474.88C151.75,-474.88 141.96,-474.88 132.27,-474.88"/>
<polygon fill="gray" stroke="gray" points="132.23,-471.38 122.23,-474.88 132.23,-478.38 132.23,-471.38"/>
</g>
<!-- :src:main:xproc:setupPaths -->
<g id="node28" class="node">
<title>:src:main:xproc:setupPaths</title>
<text text-anchor="start" x="25.5" y="-63.18" font-family="Times,serif" baseline-shift="super" font-size="14.00" fill="darkblue">18</text>
<text text-anchor="start" x="38.5" y="-63.18" font-family="Times,serif" font-size="14.00" fill="darkblue">setupPaths</text>
</g>
<!-- :src:main:xproc:collectMetadata&#45;&gt;:src:main:xproc:setupPaths -->
<g id="edge31" class="edge">
<title>:src:main:xproc:collectMetadata&#45;&gt;:src:main:xproc:setupPaths</title>
<path fill="none" stroke="gray" d="M190.91,-114.33C165.47,-104.77 121.42,-88.22 92,-77.16"/>
<polygon fill="gray" stroke="gray" points="92.84,-73.74 82.25,-73.5 90.38,-80.29 92.84,-73.74"/>
</g>
<!-- :src:main:xproc:readingTextExtras&#45;&gt;:src:main:xproc:generatePrint -->
<g id="edge37" class="edge">
<title>:src:main:xproc:readingTextExtras&#45;&gt;:src:main:xproc:generatePrint</title>
<path fill="none" stroke="gray" d="M1031.5,-300.38C1013.39,-294.71 988.31,-286.87 968.13,-280.56"/>
<polygon fill="gray" stroke="gray" points="968.96,-277.15 958.37,-277.51 966.87,-283.83 968.96,-277.15"/>
</g>
<!-- :src:main:xproc:variantApp -->
<g id="node31" class="node">
<title>:src:main:xproc:variantApp</title>
<text text-anchor="start" x="758.5" y="-267.18" font-family="Times,serif" baseline-shift="super" font-size="14.00" fill="darkblue">24</text>
<text text-anchor="start" x="771.5" y="-267.18" font-family="Times,serif" font-size="14.00" fill="darkblue">variantApp</text>
</g>
<!-- :src:main:xproc:generatePrint&#45;&gt;:src:main:xproc:variantApp -->
<g id="edge38" class="edge">
<title>:src:main:xproc:generatePrint&#45;&gt;:src:main:xproc:variantApp</title>
<path fill="none" stroke="gray" d="M889.87,-269.88C874.97,-269.88 858.14,-269.88 842.91,-269.88"/>
<polygon fill="gray" stroke="gray" points="842.66,-266.38 832.66,-269.88 842.66,-273.38 842.66,-266.38"/>
</g>
<!-- :src:main:xproc:emendedVersion -->
<g id="node32" class="node">
<title>:src:main:xproc:emendedVersion</title>
<text text-anchor="start" x="607" y="-185.18" font-family="Times,serif" baseline-shift="super" font-size="14.00" fill="darkblue">23</text>
<text text-anchor="start" x="620" y="-185.18" font-family="Times,serif" font-size="14.00" fill="darkblue">emendedVersion</text>
</g>
<!-- :src:main:xproc:variantApp&#45;&gt;:src:main:xproc:emendedVersion -->
<g id="edge39" class="edge">
<title>:src:main:xproc:variantApp&#45;&gt;:src:main:xproc:emendedVersion</title>
<path fill="none" stroke="gray" d="M782.09,-262.32C759.07,-248.28 709.52,-218.07 681.13,-200.77"/>
<polygon fill="gray" stroke="gray" points="682.74,-197.65 672.38,-195.43 679.1,-203.63 682.74,-197.65"/>
</g>
<!-- :src:main:xproc:emendedVersion&#45;&gt;:src:main:xproc:generateSearch -->
<g id="edge40" class="edge">
<title>:src:main:xproc:emendedVersion&#45;&gt;:src:main:xproc:generateSearch</title>
<path fill="none" stroke="gray" d="M606.77,-187.88C598.05,-187.88 588.93,-187.88 580.05,-187.88"/>
<polygon fill="gray" stroke="gray" points="579.78,-184.38 569.78,-187.88 579.78,-191.38 579.78,-184.38"/>
</g>
<!-- :src:main:xproc:bargraphData&#45;&gt;:src:main:xproc:generateSearch -->
<g id="edge45" class="edge">
<title>:src:main:xproc:bargraphData&#45;&gt;:src:main:xproc:generateSearch</title>
<path fill="none" stroke="gray" d="M638.84,-252.3C629.16,-248.29 617.31,-243.13 607,-237.88 584.44,-226.4 559.62,-211.42 542.75,-200.86"/>
<polygon fill="gray" stroke="gray" points="544.59,-197.88 534.27,-195.49 540.85,-203.79 544.59,-197.88"/>
</g>
<!-- :src:main:xproc:generateApp&#45;&gt;:src:main:xproc:generateSearch -->
<g id="edge58" class="edge">
<title>:src:main:xproc:generateApp&#45;&gt;:src:main:xproc:generateSearch</title>
<path fill="none" stroke="gray" d="M753.81,-202.12C715.77,-205.38 657.42,-208.62 607,-203.88 593.02,-202.57 577.91,-200.06 564.39,-197.42"/>
<polygon fill="gray" stroke="gray" points="564.9,-193.95 554.4,-195.38 563.5,-200.81 564.9,-193.95"/>
</g>
<!-- :src:main:xproc:independentTransforms&#45;&gt;:src:main:xproc:setupPaths -->
<g id="edge59" class="edge">
<title>:src:main:xproc:independentTransforms&#45;&gt;:src:main:xproc:setupPaths</title>
<path fill="none" stroke="gray" d="M449.86,-81.96C354.3,-78 186.62,-71.05 106.75,-67.74"/>
<polygon fill="gray" stroke="gray" points="106.67,-64.23 96.54,-67.31 106.38,-71.23 106.67,-64.23"/>
</g>
<!-- :src:main:xproc:indexesRedirects&#45;&gt;:src:main:xproc:collectMetadata -->
<g id="edge60" class="edge">
<title>:src:main:xproc:indexesRedirects&#45;&gt;:src:main:xproc:collectMetadata</title>
<path fill="none" stroke="gray" d="M895.23,-74.34C843.12,-64.32 744.71,-47.88 660,-47.88 660,-47.88 660,-47.88 520.5,-47.88 414.49,-47.88 293.49,-89.97 240.4,-110.66"/>
<polygon fill="gray" stroke="gray" points="239.02,-107.45 231,-114.38 241.59,-113.96 239.02,-107.45"/>
</g>
<!-- :src:main:xproc:metadataJs&#45;&gt;:src:main:xproc:generateSearch -->
<g id="edge61" class="edge">
<title>:src:main:xproc:metadataJs&#45;&gt;:src:main:xproc:generateSearch</title>
<path fill="none" stroke="gray" d="M629.78,-129.47C622.25,-131.83 614.2,-134.67 607,-137.88 583.62,-148.3 558.59,-163.71 541.89,-174.66"/>
<polygon fill="gray" stroke="gray" points="539.92,-171.77 533.53,-180.23 543.8,-177.59 539.92,-171.77"/>
</g>
<!-- :src:main:xproc:metadataJs&#45;&gt;:src:main:xproc:collectMetadata -->
<g id="edge62" class="edge">
<title>:src:main:xproc:metadataJs&#45;&gt;:src:main:xproc:collectMetadata</title>
<path fill="none" stroke="gray" d="M621.96,-121.88C545.58,-121.88 366.74,-121.88 272.89,-121.88"/>
<polygon fill="gray" stroke="gray" points="272.71,-118.38 262.71,-121.88 272.71,-125.38 272.71,-118.38"/>
</g>
<!-- :src:main:xproc:pagesJson&#45;&gt;:src:main:xproc:generateSearch -->
<g id="edge63" class="edge">
<title>:src:main:xproc:pagesJson&#45;&gt;:src:main:xproc:generateSearch</title>
<path fill="none" stroke="gray" d="M626.91,-162.45C608.06,-167.04 583.8,-172.95 563.4,-177.92"/>
<polygon fill="gray" stroke="gray" points="562.33,-174.58 553.44,-180.35 563.99,-181.38 562.33,-174.58"/>
</g>
<!-- :src:main:xproc:paraTable&#45;&gt;:src:main:xproc:emendedVersion -->
<g id="edge64" class="edge">
<title>:src:main:xproc:paraTable&#45;&gt;:src:main:xproc:emendedVersion</title>
<path fill="none" stroke="gray" d="M904.79,-55.4C896.66,-58.01 887.83,-61.22 880,-64.88 799.71,-102.49 791.18,-133.04 711,-170.88 706.32,-173.09 701.27,-175.14 696.24,-177"/>
<polygon fill="gray" stroke="gray" points="694.98,-173.73 686.68,-180.32 697.27,-180.34 694.98,-173.73"/>
</g>
</g>
</svg>
